<?xml version="1.0" encoding="UTF-8"?>
<svg width="16px" height="16px" viewBox="0 0 16 16" xmlns="http://www.w3.org/2000/svg">
 <path d="m5 5h6v6h-6z"/>
 <path d="m13 5h3v1h-3z"/>
 <path d="m13 7h3v1h-3z"/>
 <path d="m13 9h3v1h-3z"/>
 <path d="m0 6h3v1h-3z"/>
 <path d="m0 8h3v1h-3z"/>
 <path d="m0 10h3v1h-3z"/>
 <path d="m5 0h1v3h-1z"/>
 <path d="m7 0h1v3h-1z"/>
 <path d="m9 0h1v3h-1z"/>
 <path d="m10 13h1v3h-1z"/>
 <path d="m8 13h1v3h-1z"/>
 <path d="m6 13h1v3h-1z"/>
 <path d="m5 2c-1.6445 0-3 1.3555-3 3v6c0 1.6445 1.3555 3 3 3h6c1.6445 0 3-1.3555 3-3v-6c0-1.6445-1.3555-3-3-3zm0 2h6c0.57031 0 1 0.42969 1 1v6c0 0.57031-0.42969 1-1 1h-6c-0.57031 0-1-0.42969-1-1v-6c0-0.57031 0.42969-1 1-1z"/>
</svg>
