<?xml version="1.0" encoding="UTF-8"?>
<svg width="16px" height="16px" viewBox="0 0 16 16" xmlns="http://www.w3.org/2000/svg">
 <path d="m5 7c-0.30859 0-0.61328 0.089844-0.8125 0.28125l-3.5938 3.7188 3.6562 3.7188c0.19922 0.19141 0.44141 0.28125 0.75 0.28125h1v-1c0-0.25781-0.12891-0.52734-0.3125-0.71875l-1.2812-1.2812h4.5938c0.52734 0.007812 1-0.47266 1-1s-0.47266-1.0078-1-1h-4.625l1.2188-1.2812c0.18359-0.19141 0.40625-0.46094 0.40625-0.71875v-1z"/>
 <path d="m11 9c0.30859 0 0.61328-0.089844 0.8125-0.28125l3.5938-3.7188-3.6562-3.7188c-0.19922-0.19141-0.44141-0.28125-0.75-0.28125h-1v1c0 0.25781 0.12891 0.52734 0.3125 0.71875l1.2812 1.2812h-4.5938c-0.52734-0.007812-1 0.47266-1 1s0.47266 1.0078 1 1h4.625l-1.2188 1.2812c-0.18359 0.19141-0.40625 0.46094-0.40625 0.71875v1z"/>
</svg>
